<?xml version="1.0" standalone="no"?>
<!DOCTYPE svg PUBLIC "-//W3C//DTD SVG 20010904//EN"
 "http://www.w3.org/TR/2001/REC-SVG-20010904/DTD/svg10.dtd">
<svg version="1.0" xmlns="http://www.w3.org/2000/svg"
 width="34.000000pt" height="34.000000pt" viewBox="0 0 34.000000 34.000000"
 preserveAspectRatio="xMidYMid meet">

<g transform="translate(0.000000,34.000000) scale(0.100000,-0.100000)"
fill="#000000" stroke="none">
<path d="M102 323 c-21 -8 -42 -59 -42 -101 0 -31 -4 -41 -20 -45 -26 -7 -35
-33 -22 -60 6 -12 13 -40 14 -62 l3 -40 135 0 135 0 3 40 c1 22 8 50 14 62 13
27 4 53 -22 60 -16 4 -20 14 -20 45 0 44 -21 93 -45 102 -19 7 -114 7 -133 -1z
m132 -26 c19 -14 32 -82 22 -121 -6 -25 -9 -26 -86 -26 -77 0 -80 1 -86 26
-10 39 3 107 22 121 23 17 105 17 128 0z m-164 -202 c0 -37 -4 -65 -10 -65 -5
0 -10 19 -10 43 0 24 -5 48 -11 54 -13 13 -4 33 17 33 11 0 14 -15 14 -65z
m236 54 c3 -6 1 -16 -5 -22 -6 -6 -11 -30 -11 -54 0 -24 -4 -43 -10 -43 -6 0
-10 28 -10 65 0 50 3 65 14 65 8 0 18 -5 22 -11z m-71 -29 c4 -6 -20 -10 -65
-10 -45 0 -69 4 -65 10 8 13 122 13 130 0z m5 -62 c0 -28 0 -28 -70 -28 -70 0
-70 0 -70 28 0 27 0 27 70 27 70 0 70 0 70 -27z"/>
<path d="M120 270 c0 -5 5 -10 11 -10 5 0 7 5 4 10 -3 6 -8 10 -11 10 -2 0 -4
-4 -4 -10z"/>
<path d="M205 270 c-3 -5 -1 -10 4 -10 6 0 11 5 11 10 0 6 -2 10 -4 10 -3 0
-8 -4 -11 -10z"/>
<path d="M160 220 c0 -5 5 -10 10 -10 6 0 10 5 10 10 0 6 -4 10 -10 10 -5 0
-10 -4 -10 -10z"/>
<path d="M120 180 c0 -5 5 -10 10 -10 6 0 10 5 10 10 0 6 -4 10 -10 10 -5 0
-10 -4 -10 -10z"/>
<path d="M200 180 c0 -5 5 -10 10 -10 6 0 10 5 10 10 0 6 -4 10 -10 10 -5 0
-10 -4 -10 -10z"/>
</g>
</svg>
